# xmcd
#
# Track frame offsets:
#   150
#   13490
#   23010
#   33743
#   44493
#   56686
#   66326
#   76997
#   86253
#   96185
#   106215
#
# Disc length: 1552 seconds
#
# Revision: 0
# Processed by: cddbd v1.4PL0 Copyright (c) Steve Scherf et al.
# Submitted via: uFREEDB 1.6.0
#
DISCID=8c060e0b
DTITLE=Martin, Dean - Hit Sound
DYEAR=1966
DGENRE=Country
TTITLE0=A Million And One
TTITLE1=Don't Let The Blues Make You Bad
TTITLE2=Any Time
TTITLE3=One Lonely Boy
TTITLE4=I'm Living In Two Worlds
TTITLE5=Come Running Back
TTITLE6=Shades
TTITLE7=Today Is Not The Day
TTITLE8=Terrible Tangled Web
TTITLE9=Nobody But A Fool
TTITLE10=Ain't Gonna Try Anymore
EXTD=
EXTT0=
EXTT1=
EXTT2=
EXTT3=
EXTT4=
EXTT5=
EXTT6=
EXTT7=
EXTT8=
EXTT9=
EXTT10=
PLAYORDER=
